# xmcd
#
# Track frame offsets: 
#        150
#        14862
#        39897
#        77457
#        96404
#        109667
#        125563
#        141236
#        153161
#        168764
#        183295
#        198230
#        227751
#        257217
#
# Disc length: 3671 seconds
#
# Revision: 0
# Processed by: cddbd v1.5.2PL0 Copyright (c) Steve Scherf et al.
# Submitted via: ExactAudioCopy v1.0b4
#
DISCID=b10e550e
DTITLE=Angela Strehli, Sarah Brown, Narcia Ball - Rockpalast - In Conc
DTITLE=ert Angela Strehli Sarah Brown Narcia Ball  (DVD)
DYEAR=1991
DGENRE=Blues
TTITLE0=Red Hot
TTITLE1=I'd Rather Go Blind
TTITLE2=Mean Mistreater
TTITLE3=It Hurts Me Too
TTITLE4=Dreams Come True
TTITLE5=I'm Gonna Make It
TTITLE6=Tell Me Why
TTITLE7=You Can If You Think You Can
TTITLE8=It Hurts To Be In Love
TTITLE9=Bad Thing
TTITLE10=Good Rockin' Daddy
TTITLE11=Fool In Love
TTITLE12=I'm Ready
TTITLE13=Something's Got A Hold On Me
EXTD=
EXTT0=
EXTT1=
EXTT2=
EXTT3=
EXTT4=
EXTT5=
EXTT6=
EXTT7=
EXTT8=
EXTT9=
EXTT10=
EXTT11=
EXTT12=
EXTT13=
PLAYORDER=
